# xmcd
#
# Track frame offsets:
#	150
#	13834
#	30019
#	44085
#	59861
#	72503
#	89888
#	104081
#	118196
#	134400
#	150431
#	163145
#	179100
#	195083
#	207307
#	221898
#	235499
#	250719
#	266709
#	279640
#	293302
#
# Disc length: 4070 seconds
#
# Revision: 0
# Processed by: cddbd v1.5.2PL0 Copyright (c) Steve Scherf et al.
# Submitted via: EZCDAudioConverter 7.1.0.1
#
DISCID=4f0fe415
DTITLE=Hott Country Volume 266 CAN
DYEAR=2018
DGENRE=country
TTITLE0=Chris Buck Band - Spin On It
TTITLE1=Keith Urban ft. Julia Michaels - Coming Home
TTITLE2=Bobby Wills - Out Of Your Mind
TTITLE3=Travis Denning - David Ashley Parker From Powder Springs
TTITLE4=Old Dominion - Hotel Key
TTITLE5=Scotty McCreery - This Is It
TTITLE6=Dallas Smith and Terri Clark - One Drink Ago
TTITLE7=Jake Owen - I Was Jack (You Were Diane)
TTITLE8=Brett Young - Mercy
TTITLE9=Trent Harmon - You Got 'Em All
TTITLE10=Paul Brandt - All About Her
TTITLE11=Russell Dickerson - Blue Tacoma
TTITLE12=Mitchell Tenpenny - Drunk Me
TTITLE13=Rodney Atkins - Caught Up In The Country
TTITLE14=Cale Dodds - Take You Back
TTITLE15=Craig Campbell - See You Try
TTITLE16=Hunter Brothers - Those Were The Nights
TTITLE17=Jason Blaine - Boy With A Guitar
TTITLE18=The Lovelocks - Staycation [Michael IU Remix]
TTITLE19=Brad Sims - Long Good Night
TTITLE20=Amy Jack - Jack of All Trades
EXTD=
EXTT0=
EXTT1=
EXTT2=
EXTT3=
EXTT4=
EXTT5=
EXTT6=
EXTT7=
EXTT8=
EXTT9=
EXTT10=
EXTT11=
EXTT12=
EXTT13=
EXTT14=
EXTT15=
EXTT16=
EXTT17=
EXTT18=
EXTT19=
EXTT20=
PLAYORDER=
